<?xml version="1.0" encoding="UTF-8"?>
<!DOCTYPE svg PUBLIC "-//W3C//DTD SVG 1.1//EN" "http://www.w3.org/Graphics/SVG/1.1/DTD/svg11.dtd">
<!-- Creator: CorelDRAW X6 -->
<svg xmlns="http://www.w3.org/2000/svg" xml:space="preserve" width="100%" height="100%" version="1.1" style="shape-rendering:geometricPrecision; text-rendering:geometricPrecision; image-rendering:optimizeQuality; fill-rule:evenodd; clip-rule:evenodd"
viewBox="0 0 3292 2318"
 xmlns:xlink="http://www.w3.org/1999/xlink">
 <defs>
  <style type="text/css">
   <![CDATA[
    .fil1 {fill:black;fill-rule:nonzero}
    .fil0 {fill:#BA1F23;fill-rule:nonzero}
   ]]>
  </style>
 </defs>
 <g id="Layer_x0020_1">
  <metadata id="CorelCorpID_0Corel-Layer"/>
  <g id="_695875856">
   <path class="fil0" d="M2747 672c-19,-32 -48,-61 -87,-87 27,-2 48,-11 62,-27 14,-16 21,-37 21,-62 0,-19 -3,-38 -10,-57 -7,-19 -18,-39 -33,-59 -15,-20 -31,-38 -49,-52 -17,-14 -36,-27 -56,-37 -20,-10 -40,-19 -61,-27 -21,-7 -43,-14 -65,-21 -31,-9 -62,-17 -93,-25 0,0 1,-1 1,-1 -76,-19 -153,-35 -231,-48 -94,110 -190,224 -285,343 -1,0 -1,0 -2,0 0,-123 0,-247 0,-370 -94,117 -189,239 -283,365 0,0 -1,0 -1,0 0,-79 0,-157 0,-236 30,-1 60,-2 90,-2 38,-47 77,-94 115,-139 -134,-5 -268,-1 -401,13 0,201 0,402 0,602 64,-7 129,-11 193,-13 30,-36 60,-71 90,-105 0,34 0,69 0,103 65,0 130,2 194,6 136,-146 271,-283 404,-411 79,16 157,36 234,59 10,3 19,6 28,10 9,4 17,9 23,14 7,6 12,12 16,20 4,7 6,16 6,26 0,19 -7,29 -21,31 -14,2 -32,0 -52,-7 -80,-24 -162,-45 -244,-61 -37,35 -73,71 -110,108 127,21 253,50 376,88 11,3 22,8 32,12 11,5 20,10 28,17 8,6 14,14 19,22 5,9 7,18 7,29 0,11 -2,20 -7,26 -5,6 -11,9 -19,11 -8,2 -17,2 -28,0 -10,-1 -21,-4 -33,-8 -153,-47 -311,-82 -471,-102 -39,40 -78,80 -117,121 186,16 370,51 548,103 24,7 46,14 67,20 21,6 40,11 59,15 19,3 37,5 55,4 18,0 36,-4 54,-10 22,-7 38,-20 49,-39 11,-19 16,-41 16,-65 0,-34 -10,-67 -29,-99z"/>
   <path class="fil0" d="M1313 265c-15,-26 -37,-47 -67,-62 -15,-8 -33,-14 -52,-17 -19,-3 -39,-4 -59,-3 -20,1 -40,3 -61,7 -21,3 -87,21 -106,26 -65,15 -157,32 -220,52 0,206 0,405 0,602 44,-13 116,-26 160,-37 0,-155 0,-311 0,-466 23,-6 92,-25 115,-30 16,-4 31,-6 46,-8 15,-2 28,-1 40,1 12,3 22,8 29,16 7,8 11,20 11,36 0,16 -3,29 -10,39 -7,11 -16,20 -27,27 -11,8 -24,14 -39,19 -15,5 -30,9 -45,12 -17,4 -80,22 -96,26 0,45 0,90 0,135 19,-5 84,-23 102,-27 21,-5 41,-9 60,-14 19,-5 38,-11 56,-18 18,-7 36,-15 53,-25 17,-10 34,-22 50,-36 13,-11 25,-23 35,-37 10,-14 18,-28 25,-43 6,-15 11,-30 15,-45 3,-15 5,-30 5,-44 0,-31 -7,-60 -22,-85z"/>
   <path class="fil0" d="M515 1022c38,17 78,33 120,49 274,-101 627,-162 1012,-162 385,0 737,61 1012,162 41,-15 81,-31 118,-48 -332,-127 -762,-189 -1130,-189 -364,0 -857,64 -1131,188zm1131 -1022c-847,0 -1539,294 -1581,665 74,-185 243,-306 469,-399 299,-123 693,-190 1112,-190 418,0 813,68 1112,190 226,93 401,233 469,410 0,-1 1,-2 2,-2 -32,-374 -728,-674 -1582,-674z"/>
   <path class="fil1" d="M1365 1286c-775,-59 -1365,-358 -1365,-717 0,0 0,113 0,113 0,359 589,658 1364,717 0,0 0,-107 0,-107 0,-2 0,-4 1,-6z"/>
   <path class="fil1" d="M0 1393c0,0 0,113 0,113 0,359 589,658 1364,717 0,0 0,-113 0,-113 -775,-59 -1364,-358 -1364,-717z"/>
   <path class="fil1" d="M1364 1404c0,-2 0,-4 1,-6 0,0 0,0 -1,0 0,0 0,6 0,6z"/>
   <path class="fil1" d="M1509 2239c0,0 0,0 0,0 0,0 0,-2 0,-2 0,1 0,1 0,2z"/>
   <path class="fil1" d="M1646 1296c-46,0 -91,-1 -136,-3 0,0 0,83 0,83 45,2 90,3 136,3 909,0 1646,-326 1646,-728 0,0 0,-83 0,-83 0,402 -737,728 -1646,728z"/>
   <path class="fil1" d="M1646 2136c-46,0 -91,-1 -136,-3 0,0 0,81 0,81 0,1 0,1 0,2 45,2 91,3 137,3 909,0 1646,-326 1646,-728 0,0 0,-83 0,-83 0,402 -737,728 -1646,728z"/>
   <path class="fil1" d="M2110 1809c-35,0 -64,-29 -64,-64 0,-35 29,-64 64,-64 35,0 64,28 64,64 0,35 -28,64 -64,64z"/>
   <path class="fil1" d="M2574 1731c-35,0 -64,-29 -64,-64 0,-35 29,-64 64,-64 35,0 64,28 64,64 0,35 -29,64 -64,64z"/>
   <path class="fil1" d="M3046 1516c-35,0 -64,-29 -64,-64 0,-35 29,-64 64,-64 35,0 64,28 64,64 0,35 -29,64 -64,64z"/>
   <path class="fil1" d="M1509 1260c0,0 0,339 0,339 0,32 23,57 54,62 0,0 0,-462 0,-462 -30,4 -54,30 -54,62z"/>
   <path class="fil1" d="M1509 1917c0,0 0,339 0,339 0,32 23,57 54,62 0,0 0,-462 0,-462 -30,4 -54,30 -54,62z"/>
   <path class="fil1" d="M1395 1758c0,-32 26,-59 59,-59 0,0 196,0 196,0 32,0 59,26 59,59 0,32 -26,59 -59,59 0,0 -196,0 -196,0 -32,0 -59,-26 -59,-59z"/>
  </g>
 </g>
</svg>
